<svg width="136" height="26" viewBox="0 0 136 26" fill="none" xmlns="http://www.w3.org/2000/svg">
<path d="M74.2089 10.4118C73.4294 8.95031 72.2534 7.74348 70.8188 6.93278C69.3163 6.13528 67.6426 5.72327 65.9451 5.73308C64.2477 5.74289 62.5787 6.17422 61.0853 6.98904C59.6177 7.81062 58.4054 9.02817 57.5838 10.5055C56.7348 12.0508 56.2994 13.7929 56.3207 15.5599C56.2935 17.336 56.7359 19.0872 57.6024 20.6331C58.4712 22.1374 59.7558 23.353 61.2989 24.1308C62.9634 24.9956 64.8142 25.4305 66.6858 25.3968C69.9458 25.3968 72.4535 24.3465 74.116 22.2929L74.4318 21.9178L71.2461 18.692L71.0696 18.8608C70.547 19.4257 69.9146 19.8757 69.2121 20.183C68.4554 20.4699 67.6518 20.6098 66.8437 20.5956C65.7003 20.6419 64.5728 20.3129 63.6301 19.6578C62.8646 19.0848 62.3171 18.2639 62.0791 17.3323H75.3605V17.126C75.4534 15.9069 75.4627 15.7006 75.4627 15.6443C75.4916 13.8209 75.0601 12.0202 74.2089 10.4118ZM61.9491 13.7032C62.1036 12.7609 62.5683 11.8987 63.2679 11.2557C64.0512 10.6085 65.043 10.2747 66.0542 10.318C67.0741 10.2813 68.0699 10.6365 68.8406 11.312C69.5395 11.9478 70.0044 12.8039 70.1594 13.7407L61.9491 13.7032Z" fill="#89D4F0"/>
<path d="M88.1033 5.73261C86.9332 5.71886 85.7729 5.9487 84.6947 6.40778C83.8703 6.75752 83.1199 7.26366 82.4842 7.89878V5.73261H77.1345V25.425H82.7072V15.9164C82.5975 14.5734 82.9846 13.2371 83.7938 12.1655C84.1615 11.7586 84.6133 11.4384 85.1174 11.2277C85.6214 11.017 86.1652 10.921 86.7102 10.9464C87.1764 10.9149 87.6436 10.9924 88.0753 11.1729C88.507 11.3535 88.8916 11.6322 89.1993 11.9873C89.8675 12.9459 90.1829 14.1102 90.0909 15.2787V25.3969H95.6635V14.4254C95.6635 11.6122 94.9577 9.38978 93.5738 7.93629C92.8656 7.20267 92.0127 6.62743 91.0704 6.24781C90.128 5.8682 89.1172 5.69267 88.1033 5.73261Z" fill="#89D4F0"/>
<path d="M107.385 20.5395V25.4157C107.035 25.4391 106.685 25.4391 106.335 25.4157C104.839 25.3221 103.383 24.8928 102.072 24.1591C100.585 23.322 99.3572 22.0854 98.5242 20.5864C97.936 19.6063 97.5535 18.5148 97.4004 17.3793C97.2704 16.1603 97.4004 3.83842 97.4004 3.83842L102.973 0.537598V5.73265H107.375V10.4213H102.973V16.5635C103.088 17.4982 103.484 18.375 104.106 19.0766C104.715 19.8036 105.575 20.2696 106.512 20.3801C106.736 20.4182 106.962 20.437 107.19 20.4363H107.338L107.385 20.5395Z" fill="#89D4F0"/>
<path d="M114.508 5.73267V25.4345H109.075V9.00536L112.576 6.89546L114.499 5.73267H114.508Z" fill="#89D4F0"/>
<path d="M38.6369 21.3739C37.6507 22.72 36.3398 23.7889 34.8287 24.4787C33.3177 25.1685 31.6569 25.4563 30.0045 25.3147C28.3522 25.1731 26.7632 24.6068 25.3889 23.6697C24.0147 22.7326 22.9008 21.456 22.1535 19.9613C21.4062 18.4666 21.0503 16.8037 21.1197 15.1308C21.1891 13.458 21.6814 11.8309 22.5499 10.4045C23.4183 8.97812 24.6339 7.79993 26.0809 6.98212C27.528 6.1643 29.1583 5.73409 30.8166 5.73244C32.3403 5.72922 33.843 6.0914 35.201 6.78916C36.5589 7.48692 37.7333 8.50032 38.6276 9.74595L34.9125 13.3375C34.4223 12.4181 33.6422 11.6903 32.6959 11.2693C31.7496 10.8483 30.6912 10.7582 29.6884 11.0134C28.6857 11.2686 27.796 11.8544 27.1604 12.678C26.5248 13.5016 26.1796 14.5158 26.1796 15.5599C26.1796 16.604 26.5248 17.6182 27.1604 18.4418C27.796 19.2654 28.6857 19.8512 29.6884 20.1064C30.6912 20.3616 31.7496 20.2715 32.6959 19.8505C33.6422 19.4295 34.4223 18.7017 34.9125 17.7823L38.6369 21.3739Z" fill="#89D4F0"/>
<path d="M56.2 21.3741C55.2139 22.7202 53.9029 23.7891 52.3918 24.4789C50.8808 25.1687 49.22 25.4565 47.5676 25.3149C45.9153 25.1733 44.3263 24.607 42.952 23.6699C41.5778 22.7329 40.464 21.4562 39.7167 19.9615C38.9694 18.4668 38.6134 16.8039 38.6828 15.131C38.7522 13.4582 39.2445 11.8311 40.113 10.4047C40.9814 8.97835 42.197 7.80016 43.6441 6.98235C45.0911 6.16453 46.7214 5.73432 48.3797 5.73267C49.9031 5.73097 51.4053 6.0938 52.763 6.79144C54.1208 7.48908 55.2954 8.50166 56.1907 9.74618L52.4756 13.3377C51.9854 12.4184 51.2054 11.6905 50.259 11.2695C49.3127 10.8485 48.2543 10.7585 47.2515 11.0137C46.2488 11.2688 45.3591 11.8547 44.7235 12.6782C44.0879 13.5018 43.7427 14.516 43.7427 15.5601C43.7427 16.6042 44.0879 17.6184 44.7235 18.442C45.3591 19.2656 46.2488 19.8514 47.2515 20.1066C48.2543 20.3618 49.3127 20.2718 50.259 19.8508C51.2054 19.4298 51.9854 18.7019 52.4756 17.7826L56.2 21.3741Z" fill="#89D4F0"/>
<path d="M125.923 10.8808C126.841 10.8808 127.739 11.1558 128.503 11.671C129.267 12.1862 129.862 12.9185 130.213 13.7752C130.565 14.632 130.657 15.5747 130.478 16.4842C130.298 17.3937 129.856 18.2292 129.207 18.8849C128.557 19.5406 127.73 19.9872 126.829 20.1681C125.928 20.349 124.994 20.2561 124.146 19.9013C123.297 19.5464 122.572 18.9454 122.062 18.1744C121.551 17.4033 121.279 16.4968 121.279 15.5695C121.279 14.326 121.768 13.1334 122.639 12.2541C123.51 11.3748 124.691 10.8808 125.923 10.8808ZM125.923 5.73267C123.998 5.73267 122.116 6.30904 120.515 7.38889C118.915 8.46875 117.667 10.0036 116.93 11.7993C116.194 13.5951 116.001 15.571 116.376 17.4774C116.752 19.3837 117.679 21.1348 119.04 22.5092C120.401 23.8836 122.136 24.8196 124.024 25.1987C125.912 25.5779 127.869 25.3833 129.648 24.6395C131.426 23.8957 132.946 22.6361 134.016 21.02C135.086 19.4038 135.656 17.5038 135.656 15.5601C135.656 14.2696 135.405 12.9916 134.915 11.7993C134.426 10.607 133.709 9.52362 132.806 8.61106C131.902 7.6985 130.829 6.97461 129.648 6.48074C128.467 5.98686 127.201 5.73267 125.923 5.73267Z" fill="#89D4F0"/>
<path d="M15.9842 22.8275L16.2071 22.6212L16.2721 22.5462C16.3929 22.4243 16.5136 22.3117 16.6158 22.1898C17.8933 20.9258 18.7915 19.3234 19.2071 17.5668C19.3316 16.9904 19.4 16.4031 19.4114 15.8132V7.23296L14.3867 10.29V15.7007C14.3854 15.9913 14.3511 16.2807 14.2846 16.5634C14.1247 17.3589 13.7631 18.0988 13.235 18.7108C12.9107 19.0839 12.5279 19.4007 12.1019 19.6486C11.5782 19.97 10.9965 20.1835 10.3906 20.2768C9.78468 20.3702 9.16645 20.3415 8.57156 20.1924C7.97667 20.0434 7.41689 19.7769 6.92451 19.4083C6.43213 19.0397 6.01688 18.5764 5.70271 18.045C5.37411 17.4171 5.1848 16.7244 5.14791 16.0152C5.11102 15.3059 5.22744 14.597 5.48909 13.9378C5.70187 13.368 6.03095 12.8499 6.45498 12.4169C6.879 11.9839 7.38849 11.6459 7.95034 11.4246L8.15467 11.3496H8.24754L8.5819 11.2371H8.63763C9.13306 11.0992 9.64832 11.0484 10.1608 11.087C10.2703 11.093 10.3791 11.1086 10.4859 11.1339C10.6307 11.1476 10.7739 11.1758 10.9131 11.2183L11.1918 11.3027C11.306 11.335 11.4178 11.3758 11.5261 11.4246C11.6348 11.4669 11.7404 11.517 11.8419 11.5747C11.95 11.6253 12.0554 11.6816 12.1577 11.7435C12.3323 11.8546 12.4998 11.9768 12.6592 12.1092L12.7428 12.1842V6.34211C12.2627 6.11647 11.7576 5.94961 11.2382 5.84511C10.5957 5.72135 9.94112 5.67414 9.28777 5.70446C7.6736 5.78481 6.10813 6.28905 4.74607 7.16732C3.00676 8.24812 1.63833 9.84237 0.825999 11.7343C0.0136723 13.6262 -0.203325 15.7244 0.204379 17.745C0.204379 17.895 0.269393 18.045 0.306544 18.1857C0.343695 18.3264 0.390133 18.5327 0.44586 18.7108C0.625793 19.294 0.858988 19.8591 1.14244 20.3988C1.18018 20.486 1.22362 20.5705 1.27247 20.6519C4.17952 25.8657 11.5818 26.7753 15.6963 23.015L15.9842 22.8275Z" fill="#89D4F0"/>
<path d="M17.5723 23.0994C17.4423 23.2401 17.3216 23.3807 17.173 23.5214C17.1359 23.5739 17.0955 23.624 17.0522 23.6714L16.7179 23.9434H16.6714C16.5854 24.0351 16.4922 24.1198 16.3928 24.1966C15.9409 24.6051 15.4563 24.9753 14.9439 25.3031H19.4113V20.4175C18.9075 21.383 18.29 22.2835 17.5723 23.0994Z" fill="#89D4F0"/>
</svg>
