<svg width="24" height="25" viewBox="0 0 24 25" fill="none" xmlns="http://www.w3.org/2000/svg">
<path d="M8.99997 11.5526L12.7778 15.3304M7.97485 21.3053C6.60801 22.6721 4 22.3304 2 22.3304C3.0251 20.3304 1.65827 17.7224 3.0251 16.3555C4.39194 14.9887 6.60801 14.9887 7.97485 16.3555C9.34168 17.7224 9.34168 19.9385 7.97485 21.3053ZM11.9216 16.255L21.0587 6.38696C21.8635 5.51779 21.8375 4.16801 20.9999 3.33042C20.1624 2.49283 18.8126 2.46688 17.9434 3.27166L8.07534 12.4088C7.5654 12.8809 7.31043 13.117 7.16173 13.3688C6.80514 13.9726 6.79079 14.719 7.12391 15.336C7.26283 15.5933 7.50853 15.839 7.99995 16.3304C8.49136 16.8218 8.73707 17.0675 8.99438 17.2065C9.6114 17.5396 10.3578 17.5252 10.9616 17.1686C11.2134 17.0199 11.4494 16.765 11.9216 16.255Z" stroke="black" stroke-width="2" stroke-linecap="round" stroke-linejoin="round"/>
<path d="M8.99997 11.5526L12.7778 15.3304M7.97485 21.3053C6.60801 22.6721 4 22.3304 2 22.3304C3.0251 20.3304 1.65827 17.7224 3.0251 16.3555C4.39194 14.9887 6.60801 14.9887 7.97485 16.3555C9.34168 17.7224 9.34168 19.9385 7.97485 21.3053ZM11.9216 16.255L21.0587 6.38696C21.8635 5.51779 21.8375 4.16801 20.9999 3.33042C20.1624 2.49283 18.8126 2.46688 17.9434 3.27166L8.07534 12.4088C7.5654 12.8809 7.31043 13.117 7.16173 13.3688C6.80514 13.9726 6.79079 14.719 7.12391 15.336C7.26283 15.5933 7.50853 15.839 7.99995 16.3304C8.49136 16.8218 8.73707 17.0675 8.99438 17.2065C9.6114 17.5396 10.3578 17.5252 10.9616 17.1686C11.2134 17.0199 11.4494 16.765 11.9216 16.255Z" stroke="#E6F6FF" stroke-opacity="0.9" stroke-width="2" stroke-linecap="round" stroke-linejoin="round"/>
</svg>
