<svg xmlns="http://www.w3.org/2000/svg" width="181.03" height="136.827" viewBox="0 0 181.03 136.827"><g transform="translate(-3.632 -12.253)"><g transform="translate(3.052 12.253)"><g transform="translate(0 77.557)"><g transform="translate(34.47)"><ellipse cx="18.222" cy="18.368" rx="18.222" ry="18.368" transform="translate(0 36.414) rotate(-87.726)" fill="#b13928"/><circle cx="13.519" cy="13.519" r="13.519" transform="translate(5.032 31.908) rotate(-87.726)" fill="#eac43b"/><ellipse cx="8.67" cy="8.817" rx="8.67" ry="8.817" transform="translate(9.923 27.249) rotate(-87.726)" fill="#fff"/></g><g transform="translate(0 21.57)"><g transform="matrix(0.375, 0.927, -0.927, 0.375, 45.879, 0)"><g transform="translate(0 1.465)"><path d="M20.521,39.477a5.214,5.214,0,0,1-10.139,1.029L.242,6.708a5.159,5.159,0,0,1,9.845-3.086l10.139,33.8A5.355,5.355,0,0,1,20.521,39.477Z" fill="#b13928"/></g><g transform="translate(1.548 3.013)"><path d="M19.12,43.22a3.691,3.691,0,0,1-7.2.588L.164,4.719A3.6,3.6,0,0,1,2.662.164a3.541,3.541,0,0,1,4.555,2.5L18.973,41.75A5,5,0,0,1,19.12,43.22Z" fill="#eac43b"/></g><g transform="translate(2.209)"><path d="M4.94,8.467A1.569,1.569,0,0,1,3.911,9.789,1.3,1.3,0,0,1,2.148,8.761L.091,2A1.492,1.492,0,0,1,1.119.091,1.3,1.3,0,0,1,2.883,1.119L4.94,7.879Z" fill="#fff"/></g><g transform="translate(6.029 12.638)"><path d="M5.969,11.846A1.569,1.569,0,0,1,4.94,13.169,1.3,1.3,0,0,1,3.177,12.14L.091,2A1.492,1.492,0,0,1,1.119.091,1.3,1.3,0,0,1,2.883,1.119L5.969,11.259Z" fill="#fff"/></g><g transform="translate(10.879 28.508)"><path d="M4.352,6.85A1.569,1.569,0,0,1,3.324,8.173,1.3,1.3,0,0,1,1.56,7.144L.091,2A1.492,1.492,0,0,1,1.119.091,1.262,1.262,0,0,1,2.883,1.119L4.352,6.262Z" fill="#fff"/></g><g transform="translate(14.112 39.088)"><path d="M4.352,6.85A1.569,1.569,0,0,1,3.324,8.173,1.3,1.3,0,0,1,1.56,7.144L.091,2A1.492,1.492,0,0,1,1.119.091,1.3,1.3,0,0,1,2.883,1.119L4.352,6.262Z" fill="#fff"/></g></g></g></g><g transform="translate(37.632)"><g transform="matrix(0.375, 0.927, -0.927, 0.375, 117.268, 0)"><g transform="translate(0.857 1.305)"><path d="M24.254,123.207c8.523.441,14.4,1.323,24.1-1.323,11.462-3.968,22.483-11.609,22.924-12.931-1.469-2.2-12.491-20.72-12.491-20.72L62.9,84.266,47.472,32.835S30.72-1.7,12.645.065.3,46.06,3.24,55.318,16.76,98.373,16.76,98.373l6.319,1.469Z" fill="#596289"/></g><g transform="translate(6.008 1.151)"><path d="M0,6.685S3.38,1.1,6.025.22,14.842,1.4,14.842,1.4L15.87,2.571s-8.67,4.7-9.552,5c-.882.147-4.115,0-4.7,0A7.021,7.021,0,0,1,0,6.685Z" fill="#242d42"/></g><g transform="translate(3.216 2.836)"><path d="M0,11.025A29.162,29.162,0,0,1,2.057,5a19.22,19.22,0,0,0,8.67-.735c4.115-1.323,4.849-2.2,7.641-4.261,3.233-.147,5,3.527,5,3.527A25.684,25.684,0,0,1,0,11.025Z" fill="#fff"/></g><g transform="translate(54.648 53.537)"><g transform="translate(0 0)"><path d="M7.053,7.053l-5,1.469L0,1.469,4.849,0Z" fill="#596289"/></g></g><g transform="translate(4.832 24.001)"><path d="M3.086,1.616h0l-.147,5.29A1.575,1.575,0,0,1,1.323,8.229,1.722,1.722,0,0,1,0,6.613l.294-5.29A1.575,1.575,0,0,1,1.91,0,1.456,1.456,0,0,1,3.086,1.616Z" fill="#fff"/></g><g transform="translate(22.907 88.951)" opacity="0.29"><path d="M.588,11.756s7.935,2.939,20.867-2.645C31.741,4.555,36.737,0,36.737,0l2.939,5.29a54.627,54.627,0,0,1-18.809,9.845A66.713,66.713,0,0,1,0,17.193Z" transform="translate(0 0)" fill="#263265"/></g><g transform="translate(22.907 88.217)" opacity="0.28"><path d="M.147,11.756s7.494,1.763,20.867-2.5S36.884,0,36.884,0l1.763,2.939a54.627,54.627,0,0,1-18.809,9.845A58.416,58.416,0,0,1,0,14.695Z" transform="translate(0 0)" fill="#08154f"/></g><g transform="translate(13.033 22.503)"><path d="M4.29,6.347A1.411,1.411,0,0,1,3.261,7.669,1.511,1.511,0,0,1,1.5,6.641L.028,1.792A1.511,1.511,0,0,1,1.057.028,1.511,1.511,0,0,1,2.82,1.057L4,5.906C4.29,6.053,4.29,6.2,4.29,6.347Z" fill="#fff"/></g><g transform="translate(30.333 16.144)"><path d="M5.947,5.653a1.487,1.487,0,0,1-.588,1.029A1.58,1.58,0,0,1,3.3,6.388L.363,2.273A1.186,1.186,0,0,1,.657.363,1.342,1.342,0,0,1,2.714.657L5.653,4.771C5.947,4.918,5.947,5.359,5.947,5.653Z" fill="#fff"/></g><g transform="translate(22.613 88.07)"><g transform="translate(0 0)"><path d="M49.962,22.336l-.441.441c-.441.441-10.727,9.845-22.483,13.519S2.5,37.766,2.057,37.619l-.588-.147v-.588S.588,19.544.294,14.548a9.211,9.211,0,0,0-.147-1.616L0,12.05H.882a53.581,53.581,0,0,0,18.075-2.2A79.365,79.365,0,0,0,37.178.441L37.912,0ZM2.792,36.149c2.645.441,13.666,1.763,23.806-1.323s19.4-10.874,21.6-12.784L37.472,2.057a76.324,76.324,0,0,1-17.928,9.111A56.406,56.406,0,0,1,1.763,13.519V14.4C1.91,18.809,2.645,33.063,2.792,36.149Z" fill="#23889f"/></g></g><g transform="translate(14.384 76.02)"><path d="M0,14.695a58.8,58.8,0,0,0,24.54-2.5A63.186,63.186,0,0,0,46.435,0l1.91,6.466S32.622,18.515,27.038,19.544,2.2,21.6,2.2,21.6Z" transform="translate(0 0)" fill="#47517d"/></g><g transform="translate(56.738 47.986)"><g transform="translate(0 0)"><path d="M9.225,14.074a3.2,3.2,0,0,1-2.057,2.645,2.972,2.972,0,0,1-3.674-1.91L.114,3.788A2.972,2.972,0,0,1,2.024.114,2.972,2.972,0,0,1,5.7,2.024l3.38,11.021A1.207,1.207,0,0,1,9.225,14.074Z" fill="#fff"/></g></g><g transform="translate(15.413 79.253)"><path d="M0,14.548a53.5,53.5,0,0,0,24.687-1.91A58.7,58.7,0,0,0,46.435,0l1.91,6.466S32.622,18.515,27.038,19.544c-5.584.882-24.834,1.91-24.834,1.91Z" transform="translate(0 0)" fill="#2e396b"/></g><g transform="translate(38.63 49.863)"><g transform="translate(0 0)"><path d="M0,6.76,11.315,0l3.821,12.637L3.821,19.4Z" fill="#263265"/></g></g><g transform="translate(12.033 0.396)" opacity="0.44"><path d="M0,.974S8.523,9.056,18.662,27.425c3.527,8.082,7.494,20.867,7.494,20.867L40.411,92.229l.147,1.616-3.527,1.616,9.845,23.659,13.372-8.67L47.9,88.114l4.7-2.5L37.325,37.564S26.01,15.081,19.691,9.938,4.115-.789,2.792.092A5.583,5.583,0,0,1,0,.974Z" fill="#0a1851"/></g><g transform="translate(3.804 54.713)" opacity="0.46"><path d="M0,0S0,1.029,5.143,1.323s5.29.735,5.29.735l13.225,43.2s2.057.294-2.939-.147a25.477,25.477,0,0,1-7.2-1.469Z" fill="#d8dcea"/></g><g transform="translate(17.764 79.841)"><g transform="translate(0 0)"><path d="M5,.294,0,0,3.821,12.784h5Z" fill="#263265"/></g></g><g transform="translate(24.018 99.721)" opacity="0.46"><path d="M1.387,25.086.359,2.75S-1.552-.63,3.445.1,7.118,1.133,7.118,1.133L11.968,25.82" fill="#d8dcea"/></g><g transform="translate(22.613 88.07)"><g transform="translate(0 0)"><path d="M49.962,22.336l-.441.441c-.441.441-10.727,9.845-22.483,13.519S2.5,37.766,2.057,37.619l-.588-.147v-.588S.588,19.544.294,14.548a9.211,9.211,0,0,0-.147-1.616L0,12.05H.882a53.581,53.581,0,0,0,18.075-2.2A79.365,79.365,0,0,0,37.178.441L37.912,0ZM2.792,36.149c2.645.441,13.666,1.763,23.806-1.323s19.4-10.874,21.6-12.784L37.472,2.057a76.324,76.324,0,0,1-17.928,9.111A56.406,56.406,0,0,1,1.763,13.519V14.4C1.91,18.809,2.645,33.063,2.792,36.149Z" fill="#596289"/></g></g><g transform="translate(0 0)"><path d="M12.033.4c13.225-4.115,33.945,24.54,37.325,36L64.346,85.924s-10.727,9.258-22.63,12.931-24.834,1.91-24.834,1.91L1.747,51.245C-1.633,39.783-1.045,4.515,12.033.4Z" fill="none"/><path d="M12.474,1.87c-2.645.882-5,3.233-6.76,7.2A52.955,52.955,0,0,0,2.04,23.178,92.663,92.663,0,0,0,1.453,38.9,45.06,45.06,0,0,0,3.069,50.657L17.911,99.15c3.086.294,13.813,1.029,23.512-1.91,9.7-3.086,18.809-9.992,21.454-12.05L48.182,36.7a50.483,50.483,0,0,0-5.29-10.727,100.725,100.725,0,0,0-9.4-12.637c-3.821-4.261-7.641-7.641-11.021-9.552C18.5,1.723,15.266.989,12.474,1.87M12.033.4c13.225-4.115,33.945,24.54,37.325,36L64.346,85.924s-10.727,9.258-22.63,12.931-24.834,1.91-24.834,1.91L1.747,51.245C-1.633,39.783-1.045,4.515,12.033.4Z" fill="#596289"/></g><g transform="translate(2.481 41.634)" opacity="0.46"><path d="M11.462,13.372s2.057.294-2.939-.147c-4.849-.441-6.172.147-6.172.147A47.412,47.412,0,0,1,0,0" fill="#d8dcea"/></g><g transform="translate(22.246 102.942)"><g transform="translate(0 0)"><path d="M48.713,2.174a2.089,2.089,0,0,1-.294.882c-2.2,4.261-11.021,9.552-21.9,12.931C16.238,19.22,3.306,19.954.661,17.456a2.131,2.131,0,0,1,0-3.086A2.083,2.083,0,0,1,3.6,14.223c1.763.735,11.315.882,21.6-2.351C36.516,8.345,43.276,3.5,44.452,1.145A2.188,2.188,0,0,1,47.391.263,1.787,1.787,0,0,1,48.713,2.174ZM3.747,14.076Z" fill="#242d42"/></g></g><g transform="translate(15.522 91.265)"><path d="M9.736,7.679A.976.976,0,0,1,9,8.267,36.813,36.813,0,0,1,2.976,8.12H2.242L.037,1.36A1.051,1.051,0,0,1,.772.037,1.051,1.051,0,0,1,2.095.772L3.858,6.356A27.9,27.9,0,0,0,8.707,6.5c.588-.147,1.029.294,1.176.882A.455.455,0,0,1,9.736,7.679Z" transform="translate(0 0)" fill="#babece"/></g><g transform="translate(4.098 40.505)"><path d="M46.876,1.864c0,.147,0,.147-.147.294-1.91,3.086-11.168,9.7-21.014,12.784-10.727,3.38-23.071,2.645-25.275.441a1.42,1.42,0,0,1,0-2.057,1.42,1.42,0,0,1,2.057,0c1.469,1.029,12.2,2.057,22.336-1.176,9.4-2.939,17.928-9.111,19.4-11.462A1.445,1.445,0,0,1,46.289.248,1.124,1.124,0,0,1,46.876,1.864Z" transform="translate(0 0)" fill="#fff"/></g><g transform="translate(27.287 118.312)"><path d="M16.487,1.351a.976.976,0,0,1-.735.588A57.527,57.527,0,0,1,.91,3.409.942.942,0,0,1,.028,2.233.942.942,0,0,1,1.2,1.351,56.325,56.325,0,0,0,15.458.029a1.012,1.012,0,0,1,1.176.735C16.634,1.057,16.634,1.2,16.487,1.351Z" fill="#fff"/></g><g transform="translate(45.831 54.566)"><g transform="translate(0 0)"><path d="M0,1.469,2.351,0,6.319,12.637l-2.5,1.469Z" fill="#000e4a"/></g></g><g transform="translate(50.533 69.26)"><path d="M0,1.469,2.351,0,6.172,12.784,3.821,14.107Z" fill="#000e4a"/></g><g transform="translate(23.551 64.614)"><path d="M7.144,15.667a1.325,1.325,0,0,1-.882.882,1.492,1.492,0,0,1-1.91-1.029L.091,2A1.492,1.492,0,0,1,1.119.091,1.492,1.492,0,0,1,3.03,1.119L7.291,14.638A2.5,2.5,0,0,1,7.144,15.667Z" fill="#babece"/></g><g transform="translate(1.306 14.409)" opacity="0.33"><path d="M1.323,16.057A59.075,59.075,0,0,1,3.674.921C3.968.04,2.645-.4,2.5.481A60.465,60.465,0,0,0,0,15.91c0,.882,1.323,1.029,1.323.147Z" fill="#babece"/></g></g></g></g><circle cx="0.882" cy="0.882" r="0.882" transform="translate(119.211 73.158)" fill="#d91720"/><circle cx="0.882" cy="0.882" r="0.882" transform="translate(116.272 75.803)" fill="#d91720"/></g></svg>