<svg width="64" height="64" viewBox="0 0 64 64" fill="none" xmlns="http://www.w3.org/2000/svg">
<path d="M34.1417 5.52383L50.6667 5.50562L22.9422 33.2159L15.7167 40.4009L7.49573 32.1698L34.1417 5.52383ZM33.9879 30.2658C34.2024 29.9825 34.5969 30.1221 34.8964 30.0857L50.6525 30.0897L36.2925 44.4355L28.029 36.2226L33.9879 30.2658Z" fill="#54C5F8"/>
<path d="M19.7916 44.4497L28.0288 36.2227L36.2923 44.4356L36.3267 44.472L28.0308 52.691L19.7916 44.4497V44.4497Z" fill="#29B6F6"/>
<path d="M28.0305 52.6909L36.3264 44.4719L50.658 58.8177C45.2596 58.8299 39.8633 58.8137 34.4669 58.8258C34.1593 58.8946 33.9692 58.6134 33.7729 58.4393L28.0305 52.6909V52.6909Z" fill="#01579B"/>
</svg>
