<svg width="64" height="64" viewBox="0 0 64 64" fill="none" xmlns="http://www.w3.org/2000/svg">
<path d="M53.7201 16.2589L34.2913 4.60635C33.5934 4.2085 32.804 3.99927 32.0007 3.99927C31.1974 3.99927 30.4079 4.2085 29.7101 4.60635L10.2801 16.2576C9.57986 16.6867 9.00216 17.2891 8.60276 18.0067C8.20337 18.7242 7.99578 19.5326 8.00006 20.3538V43.6251C7.99586 44.4468 8.20345 45.2557 8.60281 45.9739C9.00216 46.692 9.57982 47.2951 10.2801 47.7251L15.3751 50.7676L15.4038 50.7838C17.9763 52.1001 18.9613 52.1001 20.1026 52.1001C24.1201 52.1001 26.6163 49.5001 26.6163 45.3139V22.7501C26.6186 22.4684 26.5091 22.1973 26.3118 21.9962C26.1145 21.7952 25.8455 21.6806 25.5638 21.6776H22.7663C22.4846 21.6806 22.2156 21.7952 22.0183 21.9962C21.821 22.1973 21.7115 22.4684 21.7138 22.7501V45.3139C21.724 45.6369 21.6505 45.957 21.5005 46.2433C21.3505 46.5295 21.129 46.7722 20.8576 46.9476C20.1201 47.3976 19.0488 47.3026 17.8401 46.6788L12.9576 43.7401C12.9389 43.7273 12.9236 43.7102 12.9132 43.6901C12.9027 43.6701 12.8973 43.6477 12.8976 43.6251V20.6826C12.8984 20.6562 12.9055 20.6304 12.9183 20.6074C12.9311 20.5843 12.9493 20.5647 12.9713 20.5501L31.9513 8.9251C31.9655 8.91805 31.9811 8.91439 31.9969 8.91439C32.0128 8.91439 32.0284 8.91805 32.0426 8.9251L51.0338 20.5501C51.0554 20.5659 51.0729 20.5866 51.0849 20.6105C51.0969 20.6344 51.1029 20.6609 51.1026 20.6876V43.6251C51.103 43.6488 51.0982 43.6723 51.0885 43.6939C51.0788 43.7155 51.0644 43.7347 51.0463 43.7501L32.0388 55.0813C32.0064 55.0926 31.9712 55.0926 31.9388 55.0813L27.0851 52.1988C26.941 52.1047 26.7745 52.0503 26.6026 52.0413C26.4307 52.0323 26.2595 52.069 26.1063 52.1476L26.0638 52.1726C24.7238 52.9664 24.3638 53.1726 23.1213 53.6251C22.9188 53.6988 22.4426 53.8751 22.4013 54.3463C22.3601 54.8176 22.8126 55.1526 23.2151 55.3863L29.7026 59.3701C30.3938 59.7842 31.1843 60.0032 31.9901 60.0038H32.0626C32.8482 59.9915 33.6168 59.773 34.2913 59.3701L53.7201 47.7288C54.4199 47.2976 54.9972 46.6936 55.3965 45.975C55.7957 45.2564 56.0036 44.4472 56.0001 43.6251V20.3538C56.004 19.5329 55.7963 18.7247 55.3969 18.0075C54.9975 17.2902 54.42 16.6879 53.7201 16.2589Z" fill="#92CF53"/>
<path d="M38.4849 39.7561C33.8237 39.7561 32.8299 38.4536 32.5349 36.3511C32.5017 36.1008 32.3797 35.8707 32.1911 35.7028C32.0025 35.5349 31.7599 35.4402 31.5074 35.4361H29.0324C28.7535 35.4421 28.4882 35.5582 28.2947 35.7592C28.1012 35.9602 27.9952 36.2297 27.9999 36.5086C27.9999 38.3311 28.6399 44.2799 38.4899 44.2799C41.5374 44.2799 44.0724 43.5674 45.8187 42.2186C47.5649 40.8699 48.4999 38.9074 48.4999 36.5686C48.4999 31.8749 45.4374 30.5899 39.4062 29.7499C33.2749 28.8974 33.2749 28.4636 33.2749 27.5136C33.2749 26.8299 33.2749 25.2286 37.7074 25.2286C40.8612 25.2286 42.5499 25.6274 43.0899 27.7286C43.1377 27.9616 43.2637 28.1712 43.4469 28.3229C43.6301 28.4745 43.8596 28.559 44.0974 28.5624H46.5812C46.7275 28.5609 46.8719 28.5283 47.0047 28.4667C47.1375 28.405 47.2556 28.3158 47.3512 28.2049C47.5421 27.982 47.6374 27.6927 47.6162 27.3999C47.2949 22.9561 44.0462 20.7024 37.7112 20.7024C31.9537 20.7024 28.5174 23.2961 28.5174 27.6399C28.5174 32.4024 32.0787 33.7486 37.4287 34.3061C43.6787 34.9524 43.6787 35.8949 43.6787 36.7274C43.6824 38.0249 43.1437 39.7561 38.4849 39.7561Z" fill="#92CF53"/>
</svg>
