<svg width="278" height="26" viewBox="0 0 278 26" fill="none" xmlns="http://www.w3.org/2000/svg">
<g clip-path="url(#clip0_747_441)">
<path d="M169.297 24.8811C168.027 24.5545 166.832 23.9847 165.777 23.2025L167.383 19.6954C168.286 20.3879 169.305 20.909 170.393 21.2333C171.563 21.6148 172.785 21.8078 174.015 21.8053C175.038 21.8828 176.063 21.6649 176.968 21.177C177.256 21.0095 177.494 20.7671 177.657 20.4752C177.82 20.1833 177.903 19.8525 177.897 19.5173C177.908 19.1599 177.811 18.8077 177.619 18.5077C177.426 18.2077 177.147 17.9743 176.82 17.8387C175.755 17.3711 174.639 17.0343 173.495 16.8353C172.235 16.56 170.994 16.2029 169.78 15.7663C168.827 15.4031 167.983 14.7993 167.328 14.0127C166.605 13.0759 166.242 11.9069 166.306 10.7213C166.28 9.53355 166.635 8.36924 167.318 7.40172C168.057 6.39731 169.066 5.62897 170.225 5.18867C171.619 4.62481 173.108 4.34437 174.609 4.36346C175.861 4.36195 177.108 4.51308 178.324 4.81357C179.437 5.06705 180.499 5.51107 181.463 6.1264L179.996 9.62415C178.36 8.54813 176.44 7.99878 174.488 8.04876C173.478 7.97411 172.469 8.20596 171.591 8.71455C171.301 8.89854 171.063 9.1549 170.901 9.45882C170.738 9.76274 170.656 10.1039 170.662 10.4494C170.65 10.8043 170.748 11.1542 170.941 11.4513C171.133 11.7483 171.412 11.9781 171.739 12.1091C172.82 12.5694 173.947 12.909 175.101 13.1219C176.34 13.4069 177.561 13.7607 178.761 14.1815C179.697 14.5323 180.531 15.1161 181.185 15.8788C181.909 16.7856 182.274 17.9322 182.206 19.0953C182.24 20.0017 182.053 20.9027 181.663 21.7198C181.273 22.5369 180.691 23.2455 179.968 23.7839C178.171 25.031 176.015 25.6411 173.838 25.5188C172.302 25.5246 170.773 25.3099 169.297 24.8811Z" fill="#89D4F0"/>
<path d="M212.345 5.73254V25.425H208.277V22.7055C207.592 23.5725 206.714 24.2634 205.714 24.7217C204.672 25.195 203.541 25.435 202.398 25.425C201.343 25.4842 200.287 25.3233 199.296 24.9522C198.305 24.5811 197.401 24.0078 196.64 23.2682C195.24 21.8241 194.541 19.686 194.541 16.8541V5.73254H198.813V16.1977C198.709 17.5923 199.101 18.9788 199.918 20.108C200.32 20.5446 200.812 20.8862 201.359 21.1083C201.907 21.3303 202.496 21.4275 203.085 21.3927C203.765 21.4256 204.443 21.3074 205.072 21.0465C205.701 20.7857 206.266 20.3884 206.726 19.883C207.695 18.6421 208.165 17.0789 208.045 15.5037V5.73254H212.345Z" fill="#89D4F0"/>
<path d="M265.387 24.7873C264.182 24.4728 263.039 23.9527 262.007 23.2494L263.651 19.8455C264.557 20.4595 265.554 20.9248 266.604 21.2239C267.706 21.5619 268.851 21.7356 270.003 21.7397C272.56 21.7397 273.836 21.0364 273.83 19.6298C273.841 19.3223 273.752 19.0196 273.576 18.7687C273.399 18.5177 273.146 18.3326 272.855 18.2419C271.839 17.8863 270.79 17.635 269.725 17.4918C268.468 17.3103 267.226 17.0345 266.01 16.6666C265.059 16.3553 264.209 15.7917 263.548 15.0349C262.806 14.1296 262.434 12.9725 262.508 11.7997C262.491 10.9497 262.682 10.1085 263.064 9.35099C263.447 8.5935 264.009 7.94322 264.7 7.458C266.428 6.29102 268.485 5.72175 270.561 5.83572C271.827 5.83407 273.09 5.98199 274.322 6.27646C275.403 6.50997 276.441 6.9151 277.396 7.47676L275.762 10.8714C274.183 9.91568 272.373 9.42216 270.533 9.446C269.544 9.38631 268.558 9.59005 267.672 10.0368C267.393 10.1874 267.159 10.4117 266.995 10.6858C266.832 10.9598 266.745 11.2735 266.743 11.5934C266.732 11.9259 266.827 12.2532 267.014 12.5269C267.202 12.8005 267.471 13.0059 267.784 13.1125C268.831 13.4985 269.913 13.7781 271.016 13.9471C272.229 14.1328 273.427 14.4086 274.601 14.7723C275.525 15.0766 276.354 15.6197 277.006 16.3477C277.732 17.2242 278.094 18.3494 278.019 19.4891C278.035 20.3356 277.841 21.1726 277.453 21.9232C277.065 22.6737 276.496 23.3136 275.799 23.784C273.996 24.9451 271.878 25.5059 269.743 25.3875C268.271 25.3924 266.805 25.1904 265.387 24.7873Z" fill="#89D4F0"/>
<path d="M214.231 17.7731C214.231 17.9231 214.296 18.0825 214.323 18.2232C214.351 18.3638 214.407 18.542 214.463 18.7108C214.642 19.3047 214.878 19.8795 215.169 20.4269L215.345 20.7644C216.896 23.5776 220.184 25.2937 223.899 25.2937C226.251 25.3638 228.545 24.5483 230.335 23.0056L230.633 22.7431L230.846 22.5461L230.893 22.4899C231.013 22.3773 231.125 22.2554 231.236 22.1429C232.323 20.973 233.015 19.4861 233.215 17.895C233.336 17.0314 233.398 16.1603 233.4 15.2881V0.5L229.592 2.80683V15.7194C229.582 16.0977 229.539 16.4743 229.462 16.8447C229.258 17.8427 228.8 18.7701 228.134 19.536C227.726 20.0088 227.246 20.4138 226.713 20.7363C225.785 21.279 224.73 21.5637 223.658 21.5615C222.645 21.5723 221.648 21.3125 220.767 20.8086C219.886 20.3046 219.153 19.5744 218.642 18.692C218.228 17.9063 217.987 17.0389 217.937 16.15C217.888 15.261 218.03 14.3718 218.354 13.5439C218.623 12.8227 219.038 12.1659 219.572 11.6154C220.106 11.0649 220.748 10.6326 221.456 10.3462L221.614 10.2712L221.837 10.1962L222.144 10.1024H222.246H222.348C222.832 9.96238 223.331 9.88672 223.834 9.87735H224.233C224.39 9.88141 224.546 9.90343 224.698 9.94299C224.863 9.95484 225.025 9.98954 225.181 10.0461C225.308 10.0661 225.433 10.1007 225.552 10.1493C225.692 10.1493 225.831 10.2431 225.979 10.2993L226.137 10.365V6.12641C225.836 6.00958 225.525 5.91862 225.209 5.85446C224.71 5.75436 224.203 5.70411 223.695 5.70443H223.277C221.676 5.78584 220.123 6.28677 218.772 7.15791C217.032 8.24694 215.664 9.84809 214.852 11.7459C214.04 13.6437 213.823 15.7471 214.231 17.7731Z" fill="#89D4F0"/>
<path d="M235.49 8.00189L235.434 25.2843H239.261V5.83572L235.49 8.00189Z" fill="#89D4F0"/>
<path d="M250.629 5.73254C248.713 5.7344 246.841 6.30983 245.249 7.38608C243.657 8.46232 242.417 9.99104 241.685 11.7789C240.954 13.5668 240.764 15.5335 241.139 17.4304C241.515 19.3273 242.439 21.0691 243.795 22.4356C245.151 23.8022 246.878 24.732 248.758 25.1076C250.637 25.4831 252.585 25.2876 254.354 24.5456C256.123 23.8036 257.635 22.5485 258.698 20.9391C259.761 19.3297 260.327 17.4382 260.325 15.5037C260.318 12.9113 259.294 10.4274 257.476 8.59606C255.659 6.76467 253.197 5.73501 250.629 5.73254ZM250.629 21.4115C249.474 21.4115 248.345 21.0658 247.384 20.4181C246.424 19.7704 245.675 18.8497 245.233 17.7725C244.79 16.6952 244.674 15.5098 244.899 14.3658C245.123 13.2219 245.679 12.1709 246.495 11.3457C247.311 10.5204 248.351 9.95789 249.484 9.72925C250.616 9.5006 251.791 9.61607 252.858 10.0611C253.926 10.5061 254.839 11.2606 255.482 12.2293C256.125 13.1981 256.469 14.3376 256.471 15.5037C256.472 16.2791 256.322 17.0471 256.029 17.7638C255.736 18.4805 255.306 19.1319 254.763 19.6806C254.221 20.2293 253.576 20.6646 252.867 20.9616C252.157 21.2586 251.397 21.4115 250.629 21.4115Z" fill="#89D4F0"/>
<path d="M192.664 25.3781C190.738 25.3981 188.832 24.9747 187.092 24.1403C185.749 23.3713 184.643 22.2418 183.897 20.877C183.356 19.9786 183.008 18.9754 182.875 17.9325C182.782 17.1073 182.819 7.7862 182.875 2.84434L186.832 0.5V5.73256H192.85V9.4835H186.832V17.2948C186.954 18.4306 187.425 19.4993 188.178 20.3518C188.959 21.2427 190.965 21.8803 192.674 22.0304H192.859V25.4062L192.664 25.3781Z" fill="#89D4F0"/>
<path d="M155.737 12.7749V18.392L154.966 18.9359L145.762 25.4437V18.7389L150.229 15.5881L145.762 12.4374V5.75131H145.697L145.762 5.72318L154.966 12.2311L155.737 12.7749Z" fill="#F44848"/>
<path d="M74.2089 10.4119C73.4294 8.9504 72.2534 7.74358 70.8188 6.93287C69.3163 6.13537 67.6426 5.72336 65.9451 5.73317C64.2477 5.74298 62.5787 6.17432 61.0853 6.98913C59.6177 7.81071 58.4054 9.02826 57.5838 10.5056C56.7348 12.0509 56.2995 13.793 56.3207 15.56C56.2935 17.3361 56.7359 19.0873 57.6024 20.6332C58.4712 22.1375 59.7559 23.3531 61.2989 24.1309C62.9634 24.9957 64.8142 25.4306 66.6858 25.3969C69.9458 25.3969 72.4535 24.3466 74.116 22.293L74.4318 21.9179L71.2461 18.6921L71.0696 18.8609C70.547 19.4257 69.9146 19.8758 69.2121 20.1831C68.4554 20.4699 67.6518 20.6099 66.8437 20.5957C65.7003 20.642 64.5728 20.313 63.6301 19.6579C62.8646 19.0849 62.3171 18.264 62.0791 17.3323H75.3605V17.126C75.4534 15.907 75.4627 15.7007 75.4627 15.6444C75.4916 13.821 75.0601 12.0202 74.2089 10.4119ZM61.9491 13.7033C62.1036 12.761 62.5683 11.8987 63.2679 11.2558C64.0512 10.6086 65.043 10.2748 66.0542 10.3181C67.0742 10.2813 68.0699 10.6366 68.8406 11.3121C69.5395 11.9479 70.0044 12.804 70.1594 13.7408L61.9491 13.7033Z" fill="#89D4F0"/>
<path d="M88.1033 5.73255C86.9332 5.7188 85.7729 5.94864 84.6947 6.40772C83.8703 6.75746 83.1199 7.2636 82.4842 7.89872V5.73255H77.1345V25.425H82.7071V15.9163C82.5975 14.5734 82.9846 13.237 83.7938 12.1654C84.1615 11.7585 84.6133 11.4383 85.1174 11.2276C85.6214 11.0169 86.1652 10.9209 86.7102 10.9464C87.1764 10.9148 87.6436 10.9923 88.0753 11.1729C88.507 11.3534 88.8916 11.6321 89.1993 11.9872C89.8675 12.9458 90.1829 14.1101 90.0909 15.2787V25.3968H95.6635V14.4254C95.6635 11.6121 94.9576 9.38972 93.5738 7.93623C92.8656 7.20261 92.0127 6.62737 91.0704 6.24775C90.128 5.86813 89.1171 5.69261 88.1033 5.73255Z" fill="#89D4F0"/>
<path d="M107.385 20.5394V25.4156C107.035 25.439 106.685 25.439 106.335 25.4156C104.839 25.322 103.383 24.8928 102.072 24.159C100.585 23.3219 99.3572 22.0853 98.5242 20.5863C97.9359 19.6063 97.5534 18.5147 97.4004 17.3792C97.2703 16.1602 97.4004 3.83833 97.4004 3.83833L102.973 0.537506V5.73255H107.375V10.4212H102.973V16.5634C103.088 17.4981 103.484 18.3749 104.106 19.0765C104.715 19.8035 105.575 20.2695 106.512 20.38C106.736 20.4181 106.962 20.4369 107.19 20.4362H107.338L107.385 20.5394Z" fill="#89D4F0"/>
<path d="M114.508 5.73254V25.4343H109.075V9.00524L112.576 6.89533L114.499 5.73254H114.508Z" fill="#89D4F0"/>
<path d="M38.6369 21.374C37.6508 22.7201 36.3398 23.789 34.8287 24.4788C33.3177 25.1686 31.6569 25.4564 30.0046 25.3148C28.3522 25.1732 26.7632 24.6069 25.3889 23.6698C24.0147 22.7328 22.9009 21.4561 22.1536 19.9614C21.4063 18.4667 21.0504 16.8038 21.1197 15.1309C21.1891 13.4581 21.6815 11.831 22.5499 10.4046C23.4183 8.97824 24.6339 7.80005 26.081 6.98224C27.528 6.16443 29.1583 5.73421 30.8166 5.73257C32.3403 5.72934 33.843 6.09152 35.201 6.78928C36.559 7.48704 37.7334 8.50044 38.6276 9.74607L34.9125 13.3376C34.4223 12.4182 33.6423 11.6904 32.696 11.2694C31.7496 10.8484 30.6912 10.7584 29.6885 11.0136C28.6857 11.2687 27.796 11.8546 27.1604 12.6781C26.5248 13.5017 26.1796 14.5159 26.1796 15.56C26.1796 16.6041 26.5248 17.6183 27.1604 18.4419C27.796 19.2655 28.6857 19.8513 29.6885 20.1065C30.6912 20.3617 31.7496 20.2716 32.696 19.8506C33.6423 19.4297 34.4223 18.7018 34.9125 17.7825L38.6369 21.374Z" fill="#89D4F0"/>
<path d="M56.2 21.374C55.2139 22.7201 53.9029 23.789 52.3918 24.4788C50.8808 25.1686 49.22 25.4564 47.5677 25.3148C45.9153 25.1732 44.3263 24.6069 42.952 23.6698C41.5778 22.7327 40.464 21.4561 39.7167 19.9614C38.9694 18.4667 38.6135 16.8038 38.6828 15.1309C38.7522 13.4581 39.2446 11.831 40.113 10.4046C40.9814 8.97823 42.197 7.80004 43.6441 6.98222C45.0911 6.16441 46.7214 5.7342 48.3797 5.73255C49.9032 5.73084 51.4053 6.09368 52.763 6.79132C54.1208 7.48896 55.2954 8.50154 56.1907 9.74605L52.4756 13.3376C51.9854 12.4182 51.2054 11.6904 50.259 11.2694C49.3127 10.8484 48.2543 10.7583 47.2516 11.0135C46.2488 11.2687 45.3591 11.8545 44.7235 12.6781C44.0879 13.5017 43.7427 14.5159 43.7427 15.56C43.7427 16.6041 44.0879 17.6183 44.7235 18.4419C45.3591 19.2655 46.2488 19.8513 47.2516 20.1065C48.2543 20.3617 49.3127 20.2716 50.259 19.8506C51.2054 19.4296 51.9854 18.7018 52.4756 17.7824L56.2 21.374Z" fill="#89D4F0"/>
<path d="M125.923 10.8807C126.841 10.8807 127.739 11.1557 128.503 11.6709C129.267 12.1861 129.862 12.9184 130.213 13.7751C130.565 14.6318 130.657 15.5746 130.478 16.4841C130.298 17.3936 129.856 18.229 129.207 18.8848C128.557 19.5405 127.73 19.987 126.829 20.168C125.928 20.3489 124.994 20.256 124.146 19.9011C123.297 19.5463 122.572 18.9453 122.062 18.1743C121.551 17.4032 121.279 16.4967 121.279 15.5694C121.279 14.3259 121.768 13.1333 122.639 12.254C123.51 11.3747 124.691 10.8807 125.923 10.8807ZM125.923 5.73254C123.998 5.73254 122.116 6.30891 120.515 7.38877C118.915 8.46862 117.667 10.0035 116.93 11.7992C116.194 13.5949 116.001 15.5709 116.376 17.4772C116.752 19.3836 117.679 21.1347 119.04 22.5091C120.402 23.8835 122.136 24.8194 124.024 25.1986C125.912 25.5778 127.869 25.3832 129.648 24.6394C131.426 23.8956 132.946 22.636 134.016 21.0198C135.086 19.4037 135.656 17.5037 135.656 15.56C135.656 14.2694 135.405 12.9915 134.915 11.7992C134.426 10.6069 133.709 9.5235 132.806 8.61094C131.902 7.69838 130.829 6.97449 129.648 6.48061C128.467 5.98674 127.201 5.73254 125.923 5.73254Z" fill="#89D4F0"/>
<path d="M15.9842 22.8275L16.2072 22.6212L16.2722 22.5461C16.3929 22.4242 16.5136 22.3117 16.6158 22.1898C17.8934 20.9258 18.7915 19.3233 19.2071 17.5668C19.3316 16.9904 19.4 16.403 19.4114 15.8132V7.23293L14.3868 10.2899V15.7007C14.3854 15.9912 14.3511 16.2807 14.2846 16.5634C14.1247 17.3588 13.7631 18.0988 13.2351 18.7108C12.9107 19.0838 12.5279 19.4006 12.102 19.6485C11.5782 19.9699 10.9966 20.1835 10.3906 20.2768C9.78471 20.3701 9.16648 20.3415 8.57159 20.1924C7.9767 20.0433 7.41692 19.7768 6.92454 19.4083C6.43216 19.0397 6.01691 18.5764 5.70274 18.045C5.37414 17.417 5.18483 16.7244 5.14794 16.0151C5.11105 15.3059 5.22747 14.597 5.48912 13.9377C5.7019 13.368 6.03098 12.8498 6.45501 12.4169C6.87903 11.9839 7.38852 11.6458 7.95037 11.4246L8.1547 11.3496H8.24757L8.58193 11.2371H8.63766C9.13309 11.0991 9.64835 11.0484 10.1608 11.087C10.2704 11.0929 10.3791 11.1086 10.4859 11.1339C10.6308 11.1475 10.7739 11.1758 10.9131 11.2183L11.1918 11.3027C11.306 11.335 11.4178 11.3757 11.5261 11.4246C11.6348 11.4669 11.7404 11.517 11.8419 11.5746C11.95 11.6253 12.0555 11.6816 12.1577 11.7434C12.3323 11.8546 12.4998 11.9767 12.6592 12.1091L12.7428 12.1842V6.34208C12.2627 6.11644 11.7576 5.94958 11.2382 5.84508C10.5958 5.72132 9.94115 5.67411 9.2878 5.70442C7.67363 5.78478 6.10816 6.28902 4.7461 7.16729C3.00679 8.24809 1.63836 9.84234 0.82603 11.7343C0.0137028 13.6262 -0.203294 15.7244 0.20441 17.7449C0.20441 17.895 0.269424 18.045 0.306574 18.1857C0.343725 18.3263 0.390164 18.5326 0.44589 18.7108C0.625824 19.294 0.859018 19.8591 1.14247 20.3987C1.18021 20.4859 1.22365 20.5705 1.2725 20.6519C4.17955 25.8657 11.5819 26.7753 15.6963 23.015L15.9842 22.8275Z" fill="#89D4F0"/>
<path d="M17.5724 23.0994C17.4423 23.2401 17.3216 23.3807 17.173 23.5214C17.1359 23.5739 17.0956 23.624 17.0523 23.6714L16.7179 23.9434H16.6715C16.5854 24.0351 16.4923 24.1198 16.3928 24.1966C15.9409 24.6051 15.4563 24.9753 14.9439 25.3031H19.4113V20.4175C18.9075 21.383 18.2901 22.2835 17.5724 23.0994Z" fill="#89D4F0"/>
</g>
<defs>
<clipPath id="clip0_747_441">
<rect width="278" height="25" fill="white" transform="translate(0 0.5)"/>
</clipPath>
</defs>
</svg>
