<svg width="40" height="40" viewBox="0 0 40 40" fill="none" xmlns="http://www.w3.org/2000/svg">
<circle cx="20" cy="20" r="20" fill="#C6C0FC"/>
<path d="M28.5 15.2778L20 20M20 20L11.5 15.2778M20 20L20 29.5M29 20.5L29 15.9415C29 15.5988 29 15.4275 28.9495 15.2747C28.9049 15.1395 28.8318 15.0154 28.7354 14.9108C28.6263 14.7924 28.4766 14.7092 28.177 14.5428L20.777 10.4317C20.4934 10.2741 20.3516 10.1954 20.2015 10.1645C20.0685 10.1371 19.9315 10.1371 19.7986 10.1645C19.6484 10.1954 19.5066 10.2742 19.223 10.4317L11.823 14.5428C11.5234 14.7092 11.3737 14.7924 11.2646 14.9108C11.1682 15.0154 11.0951 15.1395 11.0505 15.2747C11 15.4275 11 15.5988 11 15.9415V24.0586C11 24.4012 11 24.5725 11.0505 24.7253C11.0951 24.8605 11.1682 24.9846 11.2646 25.0893C11.3737 25.2076 11.5235 25.2908 11.823 25.4572L19.223 29.5683C19.5066 29.7259 19.6484 29.8047 19.7986 29.8356C19.9315 29.8629 20.0685 29.8629 20.2015 29.8356C20.3516 29.8047 20.4934 29.7259 20.777 29.5683L21 29.4445M15.5 12.5L24.5 17.5M24.5 24L29.5 29M29.5 24L24.5 29" stroke="#0E0B1E" stroke-width="2" stroke-linecap="round" stroke-linejoin="round"/>
</svg>
