<svg width="24" height="25" viewBox="0 0 24 25" fill="none" xmlns="http://www.w3.org/2000/svg">
<path d="M12 22.3304C17.5228 22.3304 22 17.8533 22 12.3304C22 6.80757 17.5228 2.33041 12 2.33041C6.47715 2.33041 2 6.80757 2 12.3304C2 17.8533 6.47715 22.3304 12 22.3304Z" stroke="black" stroke-width="2" stroke-linecap="round" stroke-linejoin="round"/>
<path d="M12 22.3304C17.5228 22.3304 22 17.8533 22 12.3304C22 6.80757 17.5228 2.33041 12 2.33041C6.47715 2.33041 2 6.80757 2 12.3304C2 17.8533 6.47715 22.3304 12 22.3304Z" stroke="#E6F6FF" stroke-opacity="0.9" stroke-width="2" stroke-linecap="round" stroke-linejoin="round"/>
<path d="M10 8.33041L16 12.3304L10 16.3304V8.33041Z" stroke="black" stroke-width="2" stroke-linecap="round" stroke-linejoin="round"/>
<path d="M10 8.33041L16 12.3304L10 16.3304V8.33041Z" stroke="#E6F6FF" stroke-opacity="0.9" stroke-width="2" stroke-linecap="round" stroke-linejoin="round"/>
</svg>
