<svg width="24" height="25" viewBox="0 0 24 25" fill="none" xmlns="http://www.w3.org/2000/svg">
<path d="M9.35352 5.22651H9.25352V5.32651V16.0101C9.25352 16.7042 9.07211 17.1808 8.73246 17.4668L8.7318 17.4674C8.38949 17.7608 7.93275 17.9121 7.35156 17.9121C6.77071 17.9121 6.30671 17.7609 5.95081 17.4665C5.61136 17.1805 5.43008 16.704 5.43008 16.0101V5.32651V5.22651H5.33008H3.5918H3.4918V5.32651V15.6292C3.4918 16.9915 3.83394 18.0014 4.54076 18.6335L4.54112 18.6338C5.24731 19.2593 6.18775 19.5671 7.35156 19.5671C8.51515 19.5671 9.4495 19.2594 10.143 18.6334C10.8497 18.0013 11.1918 16.9914 11.1918 15.6292V5.32651V5.22651H11.0918H9.35352ZM15.8717 14.2192L18.067 19.3696L18.0929 19.4304H18.159H20.1121H20.2686L20.2029 19.2884L16.8631 12.0748L20.0073 5.36896L20.0741 5.22651H19.9168H18.0613H17.9966L17.9701 5.28552L15.8948 9.90351L13.8854 5.2866L13.8593 5.22651H13.7937H11.8992H11.7435L11.8083 5.36811L14.8847 12.0935L11.506 19.2879L11.439 19.4304H11.5965H13.4812H13.5461L13.5726 19.3712L15.8717 14.2192Z" fill="black"/>
<path d="M9.35352 5.22651H9.25352V5.32651V16.0101C9.25352 16.7042 9.07211 17.1808 8.73246 17.4668L8.7318 17.4674C8.38949 17.7608 7.93275 17.9121 7.35156 17.9121C6.77071 17.9121 6.30671 17.7609 5.95081 17.4665C5.61136 17.1805 5.43008 16.704 5.43008 16.0101V5.32651V5.22651H5.33008H3.5918H3.4918V5.32651V15.6292C3.4918 16.9915 3.83394 18.0014 4.54076 18.6335L4.54112 18.6338C5.24731 19.2593 6.18775 19.5671 7.35156 19.5671C8.51515 19.5671 9.4495 19.2594 10.143 18.6334C10.8497 18.0013 11.1918 16.9914 11.1918 15.6292V5.32651V5.22651H11.0918H9.35352ZM15.8717 14.2192L18.067 19.3696L18.0929 19.4304H18.159H20.1121H20.2686L20.2029 19.2884L16.8631 12.0748L20.0073 5.36896L20.0741 5.22651H19.9168H18.0613H17.9966L17.9701 5.28552L15.8948 9.90351L13.8854 5.2866L13.8593 5.22651H13.7937H11.8992H11.7435L11.8083 5.36811L14.8847 12.0935L11.506 19.2879L11.439 19.4304H11.5965H13.4812H13.5461L13.5726 19.3712L15.8717 14.2192Z" fill="#E6F6FF" fill-opacity="0.9"/>
<path d="M9.35352 5.22651H9.25352V5.32651V16.0101C9.25352 16.7042 9.07211 17.1808 8.73246 17.4668L8.7318 17.4674C8.38949 17.7608 7.93275 17.9121 7.35156 17.9121C6.77071 17.9121 6.30671 17.7609 5.95081 17.4665C5.61136 17.1805 5.43008 16.704 5.43008 16.0101V5.32651V5.22651H5.33008H3.5918H3.4918V5.32651V15.6292C3.4918 16.9915 3.83394 18.0014 4.54076 18.6335L4.54112 18.6338C5.24731 19.2593 6.18775 19.5671 7.35156 19.5671C8.51515 19.5671 9.4495 19.2594 10.143 18.6334C10.8497 18.0013 11.1918 16.9914 11.1918 15.6292V5.32651V5.22651H11.0918H9.35352ZM15.8717 14.2192L18.067 19.3696L18.0929 19.4304H18.159H20.1121H20.2686L20.2029 19.2884L16.8631 12.0748L20.0073 5.36896L20.0741 5.22651H19.9168H18.0613H17.9966L17.9701 5.28552L15.8948 9.90351L13.8854 5.2866L13.8593 5.22651H13.7937H11.8992H11.7435L11.8083 5.36811L14.8847 12.0935L11.506 19.2879L11.439 19.4304H11.5965H13.4812H13.5461L13.5726 19.3712L15.8717 14.2192Z" stroke="black" stroke-width="0.2"/>
<path d="M9.35352 5.22651H9.25352V5.32651V16.0101C9.25352 16.7042 9.07211 17.1808 8.73246 17.4668L8.7318 17.4674C8.38949 17.7608 7.93275 17.9121 7.35156 17.9121C6.77071 17.9121 6.30671 17.7609 5.95081 17.4665C5.61136 17.1805 5.43008 16.704 5.43008 16.0101V5.32651V5.22651H5.33008H3.5918H3.4918V5.32651V15.6292C3.4918 16.9915 3.83394 18.0014 4.54076 18.6335L4.54112 18.6338C5.24731 19.2593 6.18775 19.5671 7.35156 19.5671C8.51515 19.5671 9.4495 19.2594 10.143 18.6334C10.8497 18.0013 11.1918 16.9914 11.1918 15.6292V5.32651V5.22651H11.0918H9.35352ZM15.8717 14.2192L18.067 19.3696L18.0929 19.4304H18.159H20.1121H20.2686L20.2029 19.2884L16.8631 12.0748L20.0073 5.36896L20.0741 5.22651H19.9168H18.0613H17.9966L17.9701 5.28552L15.8948 9.90351L13.8854 5.2866L13.8593 5.22651H13.7937H11.8992H11.7435L11.8083 5.36811L14.8847 12.0935L11.506 19.2879L11.439 19.4304H11.5965H13.4812H13.5461L13.5726 19.3712L15.8717 14.2192Z" stroke="#E6F6FF" stroke-opacity="0.9" stroke-width="0.2"/>
</svg>
